
<svg xmlns="http://www.w3.org/2000/svg" viewBox="0 0 16 16" width="16" height="16" fill="currentColor">
  <g>
    <!-- Slightly offset duplicates for bold effect -->
    <path d="M15.25 8a.75.75 0 0 1-.75.75H8.75v5.75a.75.75 0 0 1-1.5 0V8.75H1.5a.75.75 0 0 1 0-1.5h5.75V1.5a.75.75 0 0 1 1.5 0v5.75h5.75a.75.75 0 0 1 .75.75z" />
    <path d="M15.2 8a.75.75 0 0 1-.75.75H8.7v5.7a.75.75 0 0 1-1.5 0V8.7H1.45a.75.75 0 0 1 0-1.5h5.75V1.45a.75.75 0 0 1 1.5 0v5.75h5.75a.75.75 0 0 1 .75.75z" />
    <path d="M15.3 8a.75.75 0 0 1-.75.75H8.8v5.8a.75.75 0 0 1-1.5 0V8.8H1.55a.75.75 0 0 1 0-1.5h5.75V1.55a.75.75 0 0 1 1.5 0v5.75h5.75a.75.75 0 0 1 .75.75z" />
  </g>
</svg>
